# xmcd
#
# Track frame offsets:
#	182
#	26480
#	57280
#	88412
#	110235
#	129310
#	155767
#	175680
#
# Disc length: 3003 seconds
#
# Revision: 12
# Processed by: cddbd v1.5.2PL0 Copyright (c) Steve Scherf et al.
# Submitted via: audiograbber 1.83.01
#
DISCID=6a0bb908
DTITLE=Various Artist - The Blues Collection 08 -- John Mayall - New Bluesbrea
DTITLE=kers
DYEAR=1994
DGENRE=Blues
TTITLE0=John Mayall - Ridin' On The L&N [live]
TTITLE1=John Mayall - Help Me [live]
TTITLE2=John Mayall - Racehorse Man [live]
TTITLE3=John Mayall - All Your Love [live]
TTITLE4=John Mayall - I Ain't Got You [live]
TTITLE5=John Mayall - Wild About You [live]
TTITLE6=John Mayall - It Ain't Right [live]
TTITLE7=John Mayall - Room To Move [live]
EXTD=
EXTT0=
EXTT1=
EXTT2=
EXTT3=
EXTT4=
EXTT5=
EXTT6=
EXTT7=
PLAYORDER=
